<svg width="30" height="30" viewBox="0 0 45 45" fill="none" xmlns="http://www.w3.org/2000/svg">
<path fill-rule="evenodd" clip-rule="evenodd" d="M22.5001 44.7426C34.7843 44.7426 44.7427 34.7843 44.7427 22.5C44.7427 10.2157 34.7843 0.257355 22.5001 0.257355C10.2158 0.257355 0.257416 10.2157 0.257416 22.5C0.257416 34.7843 10.2158 44.7426 22.5001 44.7426ZM22.5 41.6211C33.0603 41.6211 41.6211 33.0603 41.6211 22.5C41.6211 11.9397 33.0603 3.37891 22.5 3.37891C11.9397 3.37891 3.37888 11.9397 3.37888 22.5C3.37888 33.0603 11.9397 41.6211 22.5 41.6211Z" fill="#FF8D07"/>
<path d="M23.3977 18.6404L27.8277 7.46982C28.0121 7.00477 27.778 6.4743 27.3105 6.32412C23.8378 5.20869 21.5235 5.27693 17.9339 6.33933C17.4531 6.48163 17.2045 7.02172 17.3929 7.4967L21.8122 18.6404C22.1013 19.3692 23.1087 19.3692 23.3977 18.6404Z" fill="#FF8D07"/>
<path d="M23.3977 26.3597L27.8277 37.5303C28.0121 37.9953 27.778 38.5258 27.3105 38.6759C23.8378 39.7914 21.5235 39.7231 17.9339 38.6607C17.4531 38.5184 17.2045 37.9783 17.3929 37.5034L21.8122 26.3597C22.1013 25.6309 23.1087 25.6309 23.3977 26.3597Z" fill="#FF8D07"/>
<path d="M26.2678 23.3121L37.1723 27.8502C37.6263 28.0391 38.1441 27.7993 38.2908 27.3203C39.3796 23.7629 39.313 21.3922 38.2759 17.7151C38.137 17.2226 37.6098 16.9679 37.1461 17.1608L26.2678 21.6879C25.5563 21.984 25.5563 23.016 26.2678 23.3121Z" fill="#FF8D07"/>
<path d="M18.7322 23.3121L7.82762 27.8502C7.37365 28.0391 6.85581 27.7993 6.70921 27.3203C5.62033 23.7629 5.68695 21.3922 6.72405 17.7151C6.86297 17.2226 7.3902 16.9679 7.85387 17.1608L18.7322 21.6879C19.4437 21.984 19.4437 23.016 18.7322 23.3121Z" fill="#FF8D07"/>
<path d="M25.799 20.4211L36.6422 15.7312C37.0936 15.536 37.2942 14.9913 37.0673 14.5464C35.3817 11.2423 33.6981 9.61415 30.4266 7.76527C29.9884 7.51762 29.4398 7.71943 29.2451 8.19173L24.6779 19.2726C24.3792 19.9974 25.0915 20.7271 25.799 20.4211Z" fill="#FF8D07"/>
<path d="M20.4706 25.8795L15.8924 36.9872C15.7018 37.4496 15.17 37.6551 14.7358 37.4226C11.5103 35.6959 9.92092 33.9713 8.11605 30.62C7.8743 30.1711 8.07131 29.6091 8.53236 29.4097L19.3494 24.731C20.0569 24.425 20.7693 25.1548 20.4706 25.8795Z" fill="#FF8D07"/>
<path d="M24.6036 25.8035L29.1819 36.9111C29.3725 37.3735 29.9042 37.5791 30.3384 37.3466C33.564 35.6199 35.1533 33.8952 36.9582 30.5439C37.1999 30.095 37.0029 29.533 36.5419 29.3336L25.7248 24.655C25.0173 24.349 24.3049 25.0787 24.6036 25.8035Z" fill="#FF8D07"/>
<path d="M19.2752 20.3451L8.43202 15.6552C7.98061 15.4599 7.77998 14.9153 8.00693 14.4704C9.69254 11.1662 11.3761 9.5381 14.6476 7.68921C15.0858 7.44157 15.6345 7.64338 15.8291 8.11568L20.3963 19.1966C20.6951 19.9213 19.9827 20.6511 19.2752 20.3451Z" fill="#FF8D07"/>
</svg>
