<svg width="26" height="26" viewBox="0 0 26 26" fill="none" xmlns="http://www.w3.org/2000/svg">
<path fill-rule="evenodd" clip-rule="evenodd" d="M11.8571 14.1429V18.7143H14.1428V14.1429H18.7143V11.8571H14.1428V7.28572H11.8571V11.8571H7.2857V14.1429H11.8571ZM13 23.2857C18.6806 23.2857 23.2857 18.6806 23.2857 13C23.2857 7.31936 18.6806 2.71429 13 2.71429C7.31934 2.71429 2.71427 7.31936 2.71427 13C2.71427 18.6806 7.31934 23.2857 13 23.2857ZM13 25.5714C19.943 25.5714 25.5714 19.943 25.5714 13C25.5714 6.05699 19.943 0.428574 13 0.428574C6.05698 0.428574 0.428558 6.05699 0.428558 13C0.428558 19.943 6.05698 25.5714 13 25.5714Z" fill="#787878"/>
</svg>
