<svg width="26" height="26" viewBox="0 0 26 26" fill="none" xmlns="http://www.w3.org/2000/svg">
<path fill-rule="evenodd" clip-rule="evenodd" d="M10.4026 2.71427C6.15645 2.71427 2.71427 6.15645 2.71427 10.4026C2.71427 14.6487 6.15645 18.0909 10.4026 18.0909C12.526 18.0909 14.4465 17.2316 15.839 15.839C17.2316 14.4465 18.0909 12.526 18.0909 10.4026C18.0909 6.15645 14.6487 2.71427 10.4026 2.71427ZM0.428558 10.4026C0.428558 4.89408 4.89408 0.428558 10.4026 0.428558C15.9111 0.428558 20.3766 4.89408 20.3766 10.4026C20.3766 12.7446 19.5683 14.8994 18.2172 16.6009L25.2367 23.6204L23.6204 25.2367L16.6009 18.2172C14.8994 19.5683 12.7446 20.3766 10.4026 20.3766C4.89408 20.3766 0.428558 15.9111 0.428558 10.4026Z" fill="#787878"/>
</svg>
