<svg width="33" height="23" viewBox="0 0 33 23" fill="none" xmlns="http://www.w3.org/2000/svg">
<path fill-rule="evenodd" clip-rule="evenodd" d="M0.633789 12.0893L1.62128 10.7143C3.10541 8.64778 5.14805 6.24736 7.60112 4.34168C10.039 2.44784 13.0786 0.892857 16.5001 0.892857C19.9217 0.892857 22.9613 2.44784 25.3991 4.34169C27.8522 6.24736 29.8948 8.64779 31.379 10.7143L32.3665 12.0893L31.379 13.4643C28.3486 17.6838 22.9693 22.1072 16.5001 22.1072C10.031 22.1072 4.65165 17.6838 1.62128 13.4643L0.633789 12.0893ZM3.53583 12.0893C6.3444 8.1786 11.1028 3.25 16.5001 3.25C21.8974 3.25 26.6558 8.1786 29.4644 12.0893C26.6558 16 21.8974 19.75 16.5001 19.75C11.1028 19.75 6.3444 16 3.53583 12.0893Z" fill="#787878"/>
<path fill-rule="evenodd" clip-rule="evenodd" d="M16.5003 15.0357C18.453 15.0357 20.036 13.4527 20.036 11.5C20.036 9.54728 18.453 7.96429 16.5003 7.96429C14.5476 7.96429 12.9646 9.54728 12.9646 11.5C12.9646 13.4527 14.5476 15.0357 16.5003 15.0357ZM16.5003 17.3929C19.7548 17.3929 22.3931 14.7545 22.3931 11.5C22.3931 8.24547 19.7548 5.60714 16.5003 5.60714C13.2457 5.60714 10.6074 8.24547 10.6074 11.5C10.6074 14.7545 13.2457 17.3929 16.5003 17.3929Z" fill="#787878"/>
</svg>
